HIERARCHY
ROOT Hips
{
	OFFSET 0.000000 0.000000 0.000000
	CHANNELS 6 Xposition Yposition Zposition Xrotation Yrotation Zrotation
	JOINT LeftUpLeg_virtual
	{
		OFFSET 0.000000 0.000000 0.000000
		CHANNELS 3 Xrotation Yrotation Zrotation
		JOINT LeftUpLeg
		{
			OFFSET 10.205400 -3.823500 0.155100
			CHANNELS 3 Xrotation Yrotation Zrotation
			JOINT LeftLeg
			{
				OFFSET 0.708757 -12.982077 0.567790
				CHANNELS 3 Xrotation Yrotation Zrotation
				JOINT LeftFoot
				{
					OFFSET -0.708756 -10.717838 -2.184338
					CHANNELS 3 Xrotation Yrotation Zrotation
					JOINT LeftToeBase
					{
						OFFSET 0.108149 -7.191104 7.560241
						CHANNELS 3 Xrotation Yrotation Zrotation
						JOINT LeftToe_End
						{
							OFFSET 0.070230 0.081724 4.490308
							CHANNELS 3 Xrotation Yrotation Zrotation
							End Site
							{
								OFFSET 0 0 0
							}
						}
					}
				}
			}
		}
	}
	JOINT RightUpLeg_virtual
	{
		OFFSET 0.000000 0.000000 0.000000
		CHANNELS 3 Xrotation Yrotation Zrotation
		JOINT RightUpLeg
		{
			OFFSET -10.205400 -3.823500 0.005500
			CHANNELS 3 Xrotation Yrotation Zrotation
			JOINT RightLeg
			{
				OFFSET -0.708756 -12.982134 0.610632
				CHANNELS 3 Xrotation Yrotation Zrotation
				JOINT RightFoot
				{
					OFFSET 0.708754 -10.717769 -1.945823
					CHANNELS 3 Xrotation Yrotation Zrotation
					JOINT RightToeBase
					{
						OFFSET -0.108140 -7.191069 7.372968
						CHANNELS 3 Xrotation Yrotation Zrotation
						JOINT RightToe_End
						{
							OFFSET -0.070227 0.081735 4.479403
							CHANNELS 3 Xrotation Yrotation Zrotation
							End Site
							{
								OFFSET 0 0 0
							}
						}
					}
				}
			}
		}
	}
	JOINT Spine_virtual
	{
		OFFSET 0.000000 0.000000 0.000000
		CHANNELS 3 Xrotation Yrotation Zrotation
		JOINT Spine
		{
			OFFSET 0.000000 6.876099 0.125700
			CHANNELS 3 Xrotation Yrotation Zrotation
			JOINT Spine1
			{
				OFFSET 0.000000 5.730043 0.104720
				CHANNELS 3 Xrotation Yrotation Zrotation
				JOINT Spine1_split
				{
					OFFSET 0.000000 5.730043 0.104720
					CHANNELS 3 Xrotation Yrotation Zrotation
					JOINT Spine2
					{
						OFFSET 0.000000 5.730043 0.104720
						CHANNELS 3 Xrotation Yrotation Zrotation
						JOINT Neck_virtual
						{
							OFFSET 0.000000 0.000000 0.000000
							CHANNELS 3 Xrotation Yrotation Zrotation
							JOINT Neck
							{
								OFFSET 0.000000 10.314075 0.188496
								CHANNELS 3 Xrotation Yrotation Zrotation
								JOINT Head
								{
									OFFSET 0.000000 7.643700 -2.377400
									CHANNELS 3 Xrotation Yrotation Zrotation
									JOINT HeadTop_End
									{
										OFFSET 0.000000 43.788605 -13.619600
										CHANNELS 3 Xrotation Yrotation Zrotation
										End Site
										{
											OFFSET 0 0 0
										}
									}
								}
							}
						}
						JOINT LeftShoulder_virtual
						{
							OFFSET 0.000000 0.000000 0.000000
							CHANNELS 3 Xrotation Yrotation Zrotation
							JOINT LeftShoulder
							{
								OFFSET 2.196100 4.412489 0.087492
								CHANNELS 3 Xrotation Yrotation Zrotation
								JOINT LeftShoulder_split
								{
									OFFSET 2.196100 4.412489 0.087492
									CHANNELS 3 Xrotation Yrotation Zrotation
									JOINT LeftArm
									{
										OFFSET 8.771219 -2.981674 -0.026999
										CHANNELS 3 Xrotation Yrotation Zrotation
										JOINT LeftForeArm
										{
											OFFSET 8.512804 0.000000 -0.000000
											CHANNELS 3 Xrotation Yrotation Zrotation
											JOINT LeftHand
											{
												OFFSET 18.484802 0.000000 -0.000000
												CHANNELS 3 Xrotation Yrotation Zrotation
												End Site
												{
													OFFSET 0 0 0
												}
											}
										}
									}
								}
							}
						}
						JOINT RightShoulder_virtual
						{
							OFFSET 0.000000 0.000000 0.000000
							CHANNELS 3 Xrotation Yrotation Zrotation
							JOINT RightShoulder
							{
								OFFSET -2.196100 4.412496 0.070690
								CHANNELS 3 Xrotation Yrotation Zrotation
								JOINT RightShoulder_split
								{
									OFFSET -2.196100 4.412496 0.070690
									CHANNELS 3 Xrotation Yrotation Zrotation
									JOINT RightArm
									{
										OFFSET -8.771282 -2.981682 -0.094208
										CHANNELS 3 Xrotation Yrotation Zrotation
										JOINT RightForeArm
										{
											OFFSET -8.494598 0.000000 0.000000
											CHANNELS 3 Xrotation Yrotation Zrotation
											JOINT RightHand
											{
												OFFSET -18.483803 0.000000 0.000001
												CHANNELS 3 Xrotation Yrotation Zrotation
												End Site
												{
													OFFSET 0 0 0
												}
											}
										}
									}
								}
							}
						}
					}
				}
			}
		}
	}
}
MOTION
Frames: 9
Frame Time: 0.03333333
4.961427 7.830822 -14.634531 0.000000 0.000000 0.000000 68.641031 7.154444 -3.645829 -4.635503 -6.472643 35.350498 36.072350 -4.854244 -17.100613 30.233279 52.660291 -33.636872 -5.470287 -7.200248 -3.845303 0.000000 0.000000 0.000000 70.883956 3.348113 -3.354256 -32.084458 -38.900659 -41.176373 38.488167 32.330537 -9.781424 39.739567 -45.381713 40.331383 16.318671 18.151347 4.288768 0.000000 0.000000 0.000000 75.267865 6.592567 -6.324778 15.528213 0.866426 -2.327703 -8.389238 -3.757413 -0.126178 -0.021906 0.430952 -0.017840 0.000000 0.000000 0.000000 -6.824502 -0.957697 1.220672 -8.057144 1.555244 12.584536 -25.358974 -35.646880 -11.583006 0.000000 0.000000 0.000000 -11.376673 -1.277582 -0.904125 -0.757389 -11.546869 4.921658 -0.055659 1.423814 -5.396686 29.917294 -32.439096 -54.563431 -6.928353 -36.540891 -6.463158 0.000000 0.000000 0.000000 -8.056435 -2.515170 0.124821 5.057673 2.873187 8.229288 -24.801204 1.820534 4.993649 21.426566 16.646897 46.741631 -19.369899 32.139892 28.023011 0.000000 0.000000 0.000000 
4.961308 7.831141 -14.636442 0.000000 0.000000 0.000000 68.638757 7.148183 -3.637103 -4.628827 -6.477778 35.348664 36.076366 -4.851922 -17.102982 30.248756 52.657999 -33.646704 -5.459973 -7.198003 -3.852124 0.000000 0.000000 0.000000 70.876511 3.347752 -3.352900 -32.072864 -38.905502 -41.173289 38.506472 32.326595 -9.785651 39.733809 -45.382587 40.335829 16.331834 18.156369 4.283335 0.000000 0.000000 0.000000 75.269675 6.602044 -6.327197 15.532957 0.870377 -2.330884 -8.387874 -3.751495 -0.126180 -0.021364 0.432520 -0.017615 0.000000 0.000000 0.000000 -6.821946 -0.955040 1.220565 -8.060058 1.553232 12.602027 -25.354229 -35.666705 -11.581369 0.000000 0.000000 0.000000 -11.375436 -1.272868 -0.906608 -0.752314 -11.563521 4.927418 -0.080766 1.425958 -5.375040 29.914904 -32.432323 -54.563881 -6.933885 -36.522862 -6.462099 0.000000 0.000000 0.000000 -8.055437 -2.510888 0.125181 5.055441 2.862386 8.225938 -24.809653 1.803757 4.986557 21.402203 16.598833 46.789965 -19.391532 32.128633 28.043447 0.000000 0.000000 0.000000 
4.961379 7.832422 -14.639032 0.000000 0.000000 0.000000 68.633463 7.146263 -3.631438 -4.624565 -6.477409 35.342882 36.082233 -4.839992 -17.098856 30.269343 52.656445 -33.654292 -5.451182 -7.193999 -3.863239 0.000000 0.000000 0.000000 70.868226 3.346090 -3.351780 -32.044881 -38.923257 -41.157945 38.512705 32.306358 -9.786004 39.709145 -45.405954 40.323695 16.349499 18.168003 4.273249 0.000000 0.000000 0.000000 75.267025 6.616340 -6.335034 15.543135 0.878544 -2.337308 -8.385960 -3.745009 -0.125101 -0.020933 0.435443 -0.018347 0.000000 0.000000 0.000000 -6.817305 -0.950880 1.221580 -8.059921 1.539205 12.652265 -25.367148 -35.703502 -11.595162 0.000000 0.000000 0.000000 -11.376711 -1.266977 -0.906576 -0.744875 -11.599679 4.944656 -0.090077 1.425532 -5.373171 29.897268 -32.435879 -54.557017 -6.931245 -36.476861 -6.456382 0.000000 0.000000 0.000000 -8.055946 -2.507247 0.127061 5.046681 2.824555 8.221843 -24.821329 1.789806 4.984086 21.368648 16.531542 46.832807 -19.429197 32.096531 28.090145 0.000000 0.000000 0.000000 
4.961014 7.834240 -14.642401 0.000000 0.000000 0.000000 68.627036 7.150252 -3.629226 -4.627379 -6.475077 35.334628 36.092137 -4.824940 -17.087883 30.291732 52.652945 -33.663171 -5.438633 -7.188792 -3.878360 0.000000 0.000000 0.000000 70.856178 3.343758 -3.347765 -32.012239 -38.946961 -41.141020 38.510143 32.277944 -9.783943 39.680483 -45.435040 40.311251 16.367727 18.184359 4.260444 0.000000 0.000000 0.000000 75.261663 6.630994 -6.344729 15.557689 0.889880 -2.346031 -8.382911 -3.738146 -0.123640 -0.021681 0.438679 -0.019116 0.000000 0.000000 0.000000 -6.811574 -0.945395 1.222856 -8.057989 1.516681 12.727754 -25.416420 -35.750569 -11.633222 0.000000 0.000000 0.000000 -11.378774 -1.260184 -0.904871 -0.735715 -11.652523 4.969728 -0.091359 1.420986 -5.394210 29.869370 -32.450939 -54.541325 -6.922390 -36.398665 -6.447928 0.000000 0.000000 0.000000 -8.056408 -2.503638 0.130256 5.033157 2.767273 8.212483 -24.832314 1.786922 5.000985 21.333538 16.458160 46.850368 -19.480224 32.058183 28.159553 0.000000 0.000000 0.000000 
4.960574 7.836126 -14.644709 0.000000 0.000000 0.000000 68.619673 7.160830 -3.630927 -4.635042 -6.474808 35.321493 36.106962 -4.808042 -17.071226 30.308712 52.649632 -33.663602 -5.426570 -7.183537 -3.894280 0.000000 0.000000 0.000000 70.842497 3.345721 -3.343414 -31.984304 -38.969077 -41.132663 38.512428 32.255719 -9.783671 39.662796 -45.449073 40.312350 16.382492 18.202386 4.250483 0.000000 0.000000 0.000000 75.254334 6.647831 -6.357430 15.573827 0.902618 -2.356060 -8.378486 -3.731009 -0.122019 -0.023333 0.439076 -0.020585 0.000000 0.000000 0.000000 -6.802779 -0.938862 1.224561 -8.055453 1.491671 12.818298 -25.515681 -35.792896 -11.701713 0.000000 0.000000 0.000000 -11.380251 -1.252373 -0.902209 -0.726609 -11.717493 4.999313 -0.087478 1.416849 -5.432759 29.829929 -32.478485 -54.519045 -6.910505 -36.287381 -6.439178 0.000000 0.000000 0.000000 -8.054639 -2.499531 0.133621 5.016945 2.701168 8.193112 -24.834612 1.782064 5.026533 21.302609 16.384586 46.832015 -19.534652 32.017468 28.240442 0.000000 0.000000 0.000000 
4.959666 7.838133 -14.647245 0.000000 0.000000 0.000000 68.612085 7.177618 -3.634810 -4.646304 -6.483715 35.303069 36.129594 -4.794077 -17.049945 30.328369 52.643577 -33.661802 -5.421814 -7.178555 -3.907032 0.000000 0.000000 0.000000 70.828741 3.354658 -3.339925 -31.967276 -38.985866 -41.139848 38.527410 32.241242 -9.784903 39.668782 -45.439114 40.331225 16.399563 18.218590 4.248506 0.000000 0.000000 0.000000 75.247518 6.666690 -6.371700 15.588215 0.914389 -2.366684 -8.371543 -3.723531 -0.120104 -0.023297 0.437647 -0.021048 0.000000 0.000000 0.000000 -6.789700 -0.931183 1.226568 -8.051856 1.471179 12.911920 -25.666094 -35.818369 -11.795545 0.000000 0.000000 0.000000 -11.379639 -1.244040 -0.899372 -0.719832 -11.790110 5.029209 -0.076868 1.439972 -5.488919 29.781059 -32.512086 -54.494507 -6.901662 -36.147550 -6.433485 0.000000 0.000000 0.000000 -8.050269 -2.494424 0.136497 5.000881 2.638652 8.161449 -24.844282 1.770399 5.062553 21.278471 16.314993 46.772903 -19.580699 31.972085 28.318851 0.000000 0.000000 0.000000 
4.959310 7.840204 -14.648855 0.000000 0.000000 0.000000 68.603014 7.199194 -3.638392 -4.659057 -6.505329 35.276769 36.160599 -4.782471 -17.024924 30.355744 52.637047 -33.659797 -5.423762 -7.174023 -3.912174 0.000000 0.000000 0.000000 70.812813 3.367815 -3.336449 -31.967707 -38.998195 -41.165851 38.554946 32.227483 -9.784422 39.703067 -45.408699 40.366623 16.433012 18.229099 4.258939 0.000000 0.000000 0.000000 75.241890 6.688086 -6.384545 15.595595 0.920627 -2.377620 -8.362469 -3.716139 -0.117828 -0.021915 0.436643 -0.021172 0.000000 0.000000 0.000000 -6.773120 -0.922256 1.229515 -8.040420 1.463362 12.996211 -25.850813 -35.830780 -11.899883 0.000000 0.000000 0.000000 -11.376563 -1.235940 -0.897711 -0.716523 -11.864220 5.055557 -0.066260 1.489633 -5.552830 29.728743 -32.536614 -54.478053 -6.904480 -35.993748 -6.434848 0.000000 0.000000 0.000000 -8.043269 -2.487492 0.138864 4.988434 2.591227 8.121097 -24.881589 1.739281 5.105375 21.253827 16.250680 46.679576 -19.610510 31.911211 28.383807 0.000000 0.000000 0.000000 
4.958792 7.842770 -14.647898 0.000000 0.000000 0.000000 68.594319 7.228858 -3.643238 -4.668789 -6.536036 35.240419 36.192127 -4.761350 -16.999905 30.375432 52.642242 -33.638477 -5.413909 -7.170747 -3.911637 0.000000 0.000000 0.000000 70.797616 3.386664 -3.334649 -31.983949 -39.008645 -41.208990 38.586997 32.210516 -9.780202 39.753736 -45.368210 40.410818 16.491106 18.231378 4.281206 0.000000 0.000000 0.000000 75.235128 6.714120 -6.394442 15.590576 0.918165 -2.389679 -8.352401 -3.710548 -0.115350 -0.020808 0.433691 -0.021093 0.000000 0.000000 0.000000 -6.755020 -0.913080 1.233324 -8.015890 1.470915 13.059352 -26.047186 -35.839246 -11.992903 0.000000 0.000000 0.000000 -11.373268 -1.228794 -0.896960 -0.717475 -11.936395 5.078898 -0.037344 1.555599 -5.602636 29.673801 -32.549004 -54.479423 -6.928686 -35.854661 -6.447843 0.000000 0.000000 0.000000 -8.035898 -2.480550 0.140558 4.980317 2.569042 8.080036 -24.924443 1.690377 5.138428 21.221341 16.192374 46.568722 -19.619744 31.829221 28.430058 0.000000 0.000000 0.000000 
4.957539 7.845327 -14.644781 0.000000 0.000000 0.000000 68.586977 7.264374 -3.647748 -4.675893 -6.572635 35.199236 36.216368 -4.732047 -16.975774 30.385763 52.658095 -33.604917 -5.378843 -7.169415 -3.905397 0.000000 0.000000 0.000000 70.787623 3.411756 -3.333451 -32.005488 -39.016797 -41.259428 38.609990 32.185371 -9.770530 39.798740 -45.331108 40.453196 16.566972 18.223728 4.309099 0.000000 0.000000 0.000000 75.228735 6.742158 -6.396517 15.571213 0.902187 -2.402605 -8.343785 -3.709870 -0.113590 -0.018698 0.429990 -0.019444 0.000000 0.000000 0.000000 -6.740080 -0.905949 1.237174 -7.972251 1.496445 13.093551 -26.229982 -35.854552 -12.052225 0.000000 0.000000 0.000000 -11.371701 -1.225084 -0.898367 -0.722626 -12.003170 5.094486 -0.001013 1.591112 -5.619082 29.617411 -32.543597 -54.505009 -6.979516 -35.740549 -6.471157 0.000000 0.000000 0.000000 -8.030881 -2.475735 0.141692 4.977146 2.577258 8.044669 -24.943197 1.633140 5.163678 21.175151 16.146444 46.451796 -19.622249 31.735501 28.465995 0.000000 0.000000 0.000000 
